<?xml version="1.0" standalone="no"?>
<!DOCTYPE svg PUBLIC "-//W3C//DTD SVG 20010904//EN"
 "http://www.w3.org/TR/2001/REC-SVG-20010904/DTD/svg10.dtd">
<svg version="1.0" xmlns="http://www.w3.org/2000/svg"
 width="64.000000pt" height="64.000000pt" viewBox="0 0 64.000000 64.000000"
 preserveAspectRatio="xMidYMid meet">

<g transform="translate(0.000000,64.000000) scale(0.100000,-0.100000)"
fill="#000000" stroke="none">
<path d="M200 615 c-52 -16 -90 -35 -90 -45 0 -4 12 -12 26 -19 20 -9 25 -17
21 -33 -3 -12 1 -34 9 -50 14 -27 14 -32 -1 -48 -17 -19 -13 -60 6 -60 9 0 49
-58 49 -72 0 -5 -22 -8 -49 -8 -57 0 -81 -18 -81 -60 0 -19 -8 -33 -26 -45
-32 -21 -54 -72 -54 -125 l0 -40 310 0 310 0 0 40 c0 53 -22 104 -54 125 -18
12 -26 26 -26 45 0 43 -24 60 -81 60 -48 0 -50 1 -44 23 4 12 20 35 36 50 33
32 35 43 13 68 -13 15 -14 24 -5 50 23 68 7 121 -46 148 -30 15 -168 13 -223
-4z m235 -30 c17 -16 25 -35 25 -60 0 -43 -13 -45 -30 -5 -17 42 -26 45 -59
21 -16 -12 -39 -21 -52 -21 -12 0 -46 -13 -75 -30 -51 -29 -54 -29 -64 -11 -5
11 -7 27 -4 35 3 9 -1 27 -10 41 -16 24 -16 24 31 39 27 8 85 15 131 15 75 1
85 -1 107 -24z m-21 -77 c9 -12 16 -35 16 -50 0 -27 -2 -28 -49 -28 -30 0 -52
-5 -55 -12 -5 -10 -7 -10 -12 0 -3 7 -25 12 -55 12 -27 0 -49 3 -49 8 0 13 87
62 112 62 13 0 33 7 44 15 26 19 30 19 48 -7z m-224 -120 c0 -16 -3 -19 -11
-11 -6 6 -8 16 -5 22 11 17 16 13 16 -11z m42 -5 c2 -24 8 -29 36 -31 27 -3
35 1 39 17 3 12 9 21 13 21 4 0 10 -9 13 -21 4 -16 12 -20 39 -17 28 2 34 7
36 31 2 15 8 27 13 27 13 0 11 -18 -6 -78 l-16 -52 -79 0 -79 0 -16 52 c-17
60 -19 78 -6 78 5 0 11 -12 13 -27z m58 7 c0 -13 -7 -20 -20 -20 -13 0 -20 7
-20 20 0 13 7 20 20 20 13 0 20 -7 20 -20z m100 0 c0 -13 -7 -20 -20 -20 -13
0 -20 7 -20 20 0 13 7 20 20 20 13 0 20 -7 20 -20z m72 -12 c-9 -9 -12 -7 -12
12 0 19 3 21 12 12 9 -9 9 -15 0 -24z m66 -235 l3 -113 -211 0 -210 0 0 108
c0 60 3 112 7 116 4 3 97 5 207 4 l201 -3 3 -112z m-438 -48 l0 -65 -31 0
c-32 0 -32 0 -26 45 4 43 29 85 49 85 4 0 8 -29 8 -65z m500 33 c11 -18 20
-48 20 -65 0 -30 -3 -33 -30 -33 l-30 0 0 65 c0 73 10 81 40 33z"/>
<path d="M225 220 c-18 -20 -18 -21 3 -42 24 -24 43 -18 22 7 -10 12 -10 19
-2 27 7 7 12 16 12 20 0 14 -16 8 -35 -12z"/>
<path d="M311 205 c-13 -20 -21 -38 -17 -42 3 -3 7 -4 9 -2 43 54 57 79 46 79
-8 0 -25 -16 -38 -35z"/>
<path d="M380 232 c0 -4 5 -13 12 -20 8 -8 8 -15 -2 -27 -21 -25 -2 -31 22 -7
21 21 21 22 3 42 -19 20 -35 26 -35 12z"/>
<path d="M290 125 c-26 -32 13 -81 48 -59 22 14 27 41 12 59 -16 19 -44 19
-60 0z m46 -16 c10 -17 -13 -36 -27 -22 -12 12 -4 33 11 33 5 0 12 -5 16 -11z"/>
</g>
</svg>
